<?xml version="1.0" standalone="no"?>
<!DOCTYPE svg PUBLIC "-//W3C//DTD SVG 20010904//EN"
 "http://www.w3.org/TR/2001/REC-SVG-20010904/DTD/svg10.dtd">
<svg version="1.0" xmlns="http://www.w3.org/2000/svg"
 width="200.000000pt" height="200.000000pt" viewBox="0 0 200.000000 200.000000"
 preserveAspectRatio="xMidYMid meet">

<g transform="translate(0.000000,200.000000) scale(0.100000,-0.100000)"
fill="#000000" stroke="none">
<path d="M843 1896 c-96 -19 -163 -41 -256 -88 -86 -43 -119 -70 -111 -92 11
-28 36 -26 97 10 153 90 279 119 473 111 174 -7 283 -42 429 -139 156 -105
274 -266 331 -453 25 -81 27 -105 27 -240 0 -135 -2 -159 -27 -240 -36 -118
-85 -207 -168 -305 -103 -121 -224 -202 -383 -256 -75 -26 -91 -28 -250 -28
-165 -1 -173 0 -265 31 -119 41 -225 105 -313 191 -270 264 -337 617 -183 973
12 30 13 39 2 54 -23 32 -52 3 -86 -87 -84 -218 -82 -463 7 -677 64 -157 152
-271 285 -371 99 -75 190 -121 305 -157 78 -24 105 -27 238 -27 160 -1 209 8
349 61 134 51 303 183 390 306 199 280 228 642 74 939 -126 243 -322 400 -593
473 -82 22 -281 28 -372 11z"/>
<path d="M372 1728 c-20 -20 -15 -32 57 -151 99 -164 93 -148 64 -186 l-26
-33 -123 123 c-87 87 -127 120 -138 116 -41 -16 -28 -38 98 -167 l125 -129
-20 -50 -21 -50 -52 -3 -51 -3 -3 -73 c-3 -75 21 -189 54 -255 55 -112 155
-218 262 -279 l52 -30 0 -57 c0 -63 15 -93 60 -116 24 -12 79 -15 297 -15 250
0 270 1 301 20 39 24 52 54 52 124 0 50 1 53 36 70 64 30 154 107 201 170 79
105 115 203 129 343 8 87 -1 103 -57 103 -37 0 -39 2 -74 68 -58 112 -178 241
-210 228 -36 -13 -28 -38 33 -99 54 -55 132 -167 132 -189 0 -4 -246 -8 -546
-8 -619 0 -560 -10 -501 89 82 136 244 239 412 262 50 6 96 13 103 15 21 6 26
35 9 52 -39 39 -286 -27 -400 -107 -40 -29 -58 -36 -65 -28 -5 7 -33 53 -62
102 -59 101 -97 155 -109 155 -4 0 -12 -5 -19 -12z m1138 -655 c-1 -200 -102
-378 -262 -460 l-63 -33 -175 0 c-193 0 -249 9 -358 60 -160 75 -302 288 -302
454 l0 36 580 0 580 0 0 -57z"/>
<path d="M326 1607 c-26 -19 -17 -51 16 -55 22 -3 29 2 34 22 10 43 -14 59
-50 33z"/>
<path d="M1179 1584 c-17 -20 -2 -45 36 -59 22 -8 29 -6 40 9 18 24 9 43 -27
55 -38 13 -33 14 -49 -5z"/>
<path d="M1306 1401 c-39 -43 8 -80 54 -43 17 13 21 24 16 40 -9 28 -46 29
-70 3z"/>
<path d="M1394 1325 c-8 -20 14 -63 37 -76 12 -6 22 -4 34 7 14 15 14 19 -3
48 -20 35 -59 47 -68 21z"/>
</g>
</svg>
