<?xml version="1.0" standalone="no"?><!DOCTYPE svg PUBLIC "-//W3C//DTD SVG 1.1//EN" "http://www.w3.org/Graphics/SVG/1.1/DTD/svg11.dtd"><svg class="icon" width="200px" height="200.00px" viewBox="0 0 1024 1024" version="1.1" xmlns="http://www.w3.org/2000/svg"><path d="M761.6 695.6H262.1c-6.6 0-12-5.4-12-12v-246c0-6.6 5.4-12 12-12h499.5c6.6 0 12 5.4 12 12v246c0 6.6-5.4 12-12 12z" fill="#FFFFFF" /><path d="M761.6 707.6H262.1c-13.2 0-24-10.8-24-24v-246c0-13.2 10.8-24 24-24h499.5c13.2 0 24 10.8 24 24v246c0 13.2-10.8 24-24 24z m-499.5-270v246h499.5v-246H262.1z" fill="#474747" /><path d="M512.6 274.4l258 155.2c0.9 0.6 0.5 2-0.6 2H253.7c-1.1 0-1.5-1.4-0.6-2l258.3-155.2c0.4-0.2 0.8-0.2 1.2 0z" fill="#FFFFFF" /><path d="M770 443.6H253.7c-5.8 0-10.9-3.7-12.5-9.3-1.7-5.6 0.4-11.5 5.3-14.7l0.5-0.3 258.7-155.4 0.4-0.2c3.8-1.9 8.1-1.9 11.9 0l0.8 0.5L777 419.5l0.2 0.2c4.8 3.2 7 9.1 5.3 14.7-1.6 5.5-6.7 9.2-12.5 9.2z m-477-24h437.7L512 288 293 419.6z" fill="#474747" /><path d="M726.9 471.6h-21l-193.4 93.7c-0.4 0.2-0.9 0.2-1.2 0L318 471.6h-21.2c-8.3 0-15.1 6.8-15.1 15.1v158c0 8.3 6.8 15.1 15.1 15.1h430.1c8.3 0 15.1-6.8 15.1-15.1v-158c0-8.3-6.8-15.1-15.1-15.1z" fill="#FFDD00" /><path d="M411 607h-88c-3.3 0-6-2.7-6-6s2.7-6 6-6h88c3.3 0 6 2.7 6 6s-2.7 6-6 6zM361 636h-38c-3.3 0-6-2.7-6-6s2.7-6 6-6h38c3.3 0 6 2.7 6 6s-2.7 6-6 6z" fill="#FFFFFF" /></svg>