<?xml version="1.0" standalone="no"?><!DOCTYPE svg PUBLIC "-//W3C//DTD SVG 1.1//EN" "http://www.w3.org/Graphics/SVG/1.1/DTD/svg11.dtd"><svg class="icon" width="200px" height="200.00px" viewBox="0 0 1024 1024" version="1.1" xmlns="http://www.w3.org/2000/svg"><path d="M637.775203 636.588644a188.366165 188.366165 0 1 1 188.366164-188.366164A188.366165 188.366165 0 0 1 637.775203 636.588644z m35.893395-185.696408a41.381228 41.381228 0 1 0-41.381228-41.381228 41.381228 41.381228 0 0 0 41.381228 41.381228z" fill="#FFDA6A" /><path d="M560.797219 635.847045L409.955968 806.118192 296.639629 822.878331l1.334879-121.325608 56.658169-14.090382 2.373117-64.51912 60.662804-2.521437 4.004635-63.184241 38.118192-5.191193 81.130939-11.568946z" fill="#FFDA6A" /><path d="M295.60139 836.672074a11.568946 11.568946 0 0 1-3.114716 0 14.831981 14.831981 0 0 1-10.234067-13.793743l-1.928157-128a14.831981 14.831981 0 0 1 13.052143-14.831981l46.869062-6.229432 5.636153-50.873697a14.831981 14.831981 0 0 1 12.013905-12.903824l49.390498-9.047508 3.114716-47.462341a14.831981 14.831981 0 0 1 12.903824-13.793743l24.769409-3.263036-6.674392-16.463499a204.533024 204.533024 0 0 1 281.807648-251.105446l7.119351 3.856315 1.779838-2.373117c37.079954-31.147161 70.896871-41.826188 96.852839-33.816918a56.509849 56.509849 0 0 1 36.486674 62.887602 140.162225 140.162225 0 0 1-32.778679 73.121668l-6.822711 6.674392 3.263036 8.30591a204.533024 204.533024 0 0 1-186.289688 270.831981 208.537659 208.537659 0 0 1-48.945538-4.004635l-19.133256-5.191193-156.180765 170.122827a14.831981 14.831981 0 0 1-9.195829 4.746234l-110.646581 12.607184a10.975666 10.975666 0 0 1-3.114717 0z m39.304751-33.965237l65.557358-7.415991L545.075319 637.775203l-19.429896-10.827347a203.791425 203.791425 0 0 1-55.76825-52.060255l-6.526072-9.937427-24.17613 3.114716-3.114716 46.720742a14.831981 14.831981 0 0 1-12.162225 13.645422l-49.835458 9.344149-5.784472 50.577057a14.831981 14.831981 0 0 1-12.755504 13.200463l-44.495945 5.932793 0.44496 77.126303 153.807647-167.89803a14.831981 14.831981 0 0 1 21.061414-0.889919 14.831981 14.831981 0 0 1 0.889919 20.913094z m306.873697-170.122828a176.648899 176.648899 0 0 0 98.632676-34.261877 179.022016 179.022016 0 0 0 68.523755-185.399768l-4.449595-14.831982-6.081112 4.004635a88.991889 88.991889 0 0 1-45.830823 12.458865 81.575898 81.575898 0 0 1-19.578215-2.521437l-4.449595-1.483198v2.966396a51.911935 51.911935 0 0 1-20.913094 34.113557 52.950174 52.950174 0 0 1-29.663962 10.085748 52.505214 52.505214 0 0 1-32.778679-94.628042 52.505214 52.505214 0 0 1 73.121668 11.420626 47.61066 47.61066 0 0 1 2.818077 4.597914l3.856315 2.076478a59.327926 59.327926 0 0 0 54.136732 0.741599l14.090382-8.60255-4.894553-9.492468c-3.114716-5.191194-6.526072-10.382387-10.085748-14.831981a178.725377 178.725377 0 1 0-287.59212 210.614136l13.645423 15.573581 20.764774 19.578216 14.831981 10.234067a179.022016 179.022016 0 0 0 101.895713 27.587485z m-144.16686-180.356894a12.903824 12.903824 0 0 1-12.755504-12.903824c0.741599-71.045191 74.159907-142.831981 141.497103-137.640788a12.903824 12.903824 0 0 1-1.928158 25.807648c-50.725377-4.004635-113.168019 54.878331-113.761297 111.98146a13.052144 13.052144 0 0 1-13.052144 12.755504z m180.060255-20.913094a27.290846 27.290846 0 0 0 14.831981-5.042874 26.845886 26.845886 0 0 0 10.085748-27.587485v-2.076478l-1.631518-1.186558a13.052144 13.052144 0 0 1-5.339514-8.45423V385.631518a26.549247 26.549247 0 1 0-16.760139 46.127462z m135.86095-76.681344l12.162225-17.501738a102.933951 102.933951 0 0 0 13.497103-39.749711 30.850521 30.850521 0 0 0-18.539977-35.893395c-11.717265-3.559676-31.88876-1.038239-59.327926 19.133256l-8.00927 6.229432 4.152955 2.818077a201.269988 201.269988 0 0 1 43.309386 43.606025 188.069525 188.069525 0 0 1 11.420626 17.650058z" fill="#333333" /></svg>